<?xml version="1.0" encoding="utf-8"?>
<!-- Generator: Adobe Illustrator 19.1.0, SVG Export Plug-In . SVG Version: 6.00 Build 0)  -->
<svg version="1.1" id="Layer_1" xmlns="http://www.w3.org/2000/svg" xmlns:xlink="http://www.w3.org/1999/xlink" x="0px" y="0px"
	 viewBox="0 0 200 200" style="enable-background:new 0 0 200 200;" xml:space="preserve">
<style type="text/css">
	.st0{fill:#FDFDFD;}
	.st1{fill:#FD7507;}
	.st2{fill:#0C3757;}
	.st3{fill:#0C3858;}
	.st4{fill:#030303;}
	.st5{fill:#FEFDFC;}
	.st6{fill:#080808;}
	.st7{fill:#090909;}
	.st8{font-family:'LeelawadeeUI-Semilight';}
	.st9{font-size:14.6464px;}
	.st10{letter-spacing:3;}
	.st11{letter-spacing:2.9;}
</style>
<g>
	<g>
		<g>
			<path class="st0" d="M39.2,82.6c0-21.4,0-42.7,0-64.1c0-1.5,0-2.2,2-2.2c39.6,0.1,79.2,0.1,118.7,0c1.8,0,1.9,0.5,1.9,2
				c0,42.9-0.1,85.8,0,128.7c0,1.8-0.5,1.9-2,1.9c-39.6,0-79.2-0.1-118.7,0c-1.8,0-1.9-0.5-1.9-2C39.3,125.6,39.2,104.1,39.2,82.6z
				 M97.5,125.1c0.8,0.4,0.9,1.8,2.1,1.6c0.2,0,0.5-0.4,0.5-0.5c-0.2-1-1-1.5-1.8-2c-0.1-0.1-0.3-0.1-0.5-0.2
				c-0.8-0.8-1.6-1.5-2.4-2.3c0-1.2-0.9-1.8-1.5-2.6c-2.6-3.5-5.1-7-7-11c-2.1-4.4-2.8-9-1.8-13.8C87,85.6,96,80.2,105.4,82
				c8.5,1.6,14.5,10.6,12.9,19.5c-1.7,9.2-7.6,16.1-13.4,22.9c-0.4,0.4-0.8,0.7-0.7,1.4c-0.3,0.2-0.5,0.6-0.1,0.8
				c0.6,0.3,0.7-0.3,0.7-0.7c1.2-0.8,2.3-1.8,3.2-2.9c3.9-4.8,7.9-9.4,11.8-14.2c2.1,2.5,4.1,4.9,6.3,7.4c5.5,6.2,6.2,6.3,11.7,0.1
				c5.6-6.3,10.9-12.8,14-20.8c4.9-12.4-0.6-24.3-13.1-28.4c0-3.1-0.1-6.3-0.8-9.3c-3.7-14.9-12.9-25-27.9-28.3
				c-15.2-3.3-28.1,1.4-37.8,13.8c-5.3,6.8-7.4,14.5-6.9,23.1c-0.9,0.1-1.8,0.2-2.7,0.4C49.6,69.8,43.1,82.5,48,95.2
				c3.6,9.5,10.3,16.9,17.1,24.2c1.8,1.9,4,1.8,5.8-0.2c3.8-4.1,7.6-8.3,10.7-13c0.7,0.9,1.4,1.7,2.1,2.6c3.6,4.5,7.1,9.2,11.2,13.4
				C95.4,123.4,96.3,124.4,97.5,125.1z M79.8,141.8c0.2,0,0.4,0,0.7-0.1c-0.2,2.4,0.9,3.8,3.2,3.9c2.8,0.1,3.4-1.9,3.6-4.7
				c0,3.1,2,2.6,3.7,2.6c5.4,0,10.7-0.1,16.1,0c1.8,0,3-0.3,3.6-2.2c-0.2,2.2,0.6,3.7,2.6,4.1c2,0.4,3.4-0.5,4-2.5
				c0.3-0.9,0.3-0.5,0.9-0.1c1.6,1.1,3.7,1.1,5.1,0.1c1.6-1.1,1.7-3,0.9-5c-0.7-1.6-1.4-2.8-3.3-3.1c-1.5-0.3-2.8-1.3-4.1-2.2
				c-2.6-1.8-5.4-2.9-8.5-3c-4.3-0.2-8.9-1.4-12.8,0.9c-4.5,2.7-8.9,4.8-14.2,4.7c-1,0-2,0.4-3,0.7c-1.9,0.5-2.8,2-3.4,3.7
				c-0.6,2,1.1,2.9,2.2,3.6C78.2,144.1,79.7,143.7,79.8,141.8z M101.7,126.3c-0.1,0.1-0.3,0.2-0.4,0.3c0.1,0.1,0.3,0.2,0.4,0.2
				c0.1,0,0.3-0.1,0.4-0.2C101.9,126.4,101.8,126.3,101.7,126.3z"/>
			<path class="st1" d="M104.1,125.7c0-0.6,0.4-0.9,0.7-1.4c5.9-6.8,11.8-13.6,13.4-22.9c1.6-8.9-4.4-17.9-12.9-19.5
				C96,80.2,87,85.6,85.1,94.4c-1,4.7-0.3,9.4,1.8,13.8c1.9,3.9,4.3,7.5,7,11c0.6,0.8,1.5,1.4,1.5,2.6c-0.1,0.1-0.3,0.3-0.4,0.4
				c-4.1-4.2-7.5-8.8-11.2-13.4c-0.7-0.9-1.4-1.7-2.1-2.6c-0.9-1.3-1.7-2.6-2.6-3.9c-7.2-11-14.1-22.1-13.8-36
				c-0.5-8.5,1.6-16.3,6.9-23.1c9.7-12.4,22.6-17.1,37.8-13.8c15.1,3.3,24.2,13.4,27.9,28.3c0.8,3,0.8,6.2,0.8,9.3
				c-0.7,8.2-3.3,15.8-7,23.1c-3.4,6.6-7.7,12.5-11.9,18.6c-3.9,4.7-7.9,9.4-11.8,14.2c-0.9,1.2-2,2.1-3.2,2.9
				C104.5,125.8,104.3,125.7,104.1,125.7z"/>
			<path class="st2" d="M65.2,66.3c-0.3,13.9,6.7,25,13.8,36c0.9,1.3,1.7,2.6,2.6,3.9c-3.1,4.7-6.9,8.9-10.7,13
				c-1.9,2-4.1,2.1-5.8,0.2c-6.8-7.3-13.5-14.7-17.1-24.2c-4.9-12.7,1.7-25.4,14.6-28.5C63.4,66.5,64.3,66.4,65.2,66.3z"/>
			<path class="st3" d="M119.8,108.7c4.2-6.1,8.5-12,11.9-18.6c3.8-7.3,6.3-14.9,7-23.1c12.5,4.1,18,16,13.1,28.4
				c-3.1,8-8.5,14.5-14,20.8c-5.4,6.1-6.2,6.1-11.7-0.1C123.9,113.7,121.9,111.2,119.8,108.7z"/>
			<path class="st4" d="M79.8,141.8c0,1.9-1.5,2.3-2.6,1.6c-1.1-0.7-2.8-1.6-2.2-3.6c0.6-1.7,1.4-3.2,3.4-3.7c1-0.2,2-0.7,3-0.7
				c5.3,0,9.7-2,14.2-4.7c3.9-2.3,8.5-1.1,12.8-0.9c3.1,0.1,5.9,1.2,8.5,3c1.3,0.9,2.7,1.9,4.1,2.2c2,0.4,2.7,1.5,3.3,3.1
				c0.8,2,0.7,3.8-0.9,5c-1.5,1-3.5,1-5.1-0.1c-0.6-0.4-0.6-0.8-0.9,0.1c-0.6,2-2,2.9-4,2.5c-2-0.4-2.8-1.9-2.6-4.1
				c-0.6,1.9-1.9,2.2-3.6,2.2c-5.4-0.1-10.7-0.1-16.1,0c-1.8,0-3.7,0.5-3.7-2.6c-0.2,2.7-0.8,4.7-3.6,4.7c-2.4,0-3.4-1.5-3.2-3.9
				c0.3-0.3,0.5-0.7,0-0.8C79.8,140.8,79.8,141.4,79.8,141.8z M114.7,138.7c0.4,1.6,1.3,2,2.7,2.4C117,139.5,116.1,139,114.7,138.7z
				 M84.1,139c-0.3-0.2-0.4-0.5-0.6-0.5c-0.2,0-0.6,0.1-0.7,0.3c-0.1,0.4,0.2,0.6,0.6,0.6C83.6,139.4,83.8,139.2,84.1,139z
				 M81.8,140.1c0-0.1-0.1-0.1-0.1-0.2c-0.1,0.1-0.1,0.1-0.1,0.2c0,0.1,0.1,0.1,0.1,0.2C81.7,140.2,81.8,140.2,81.8,140.1z"/>
			<path class="st5" d="M97.8,124c0.2,0,0.4,0.1,0.5,0.2c0.8,0.5,1.5,1,1.8,2c0,0.1-0.3,0.5-0.5,0.5c-1.2,0.2-1.3-1.1-2.1-1.6
				C97.6,124.7,97.7,124.4,97.8,124z"/>
			<path class="st1" d="M97.8,124c-0.1,0.4-0.2,0.7-0.3,1.1c-1.2-0.7-2.1-1.7-2.6-3c0.1-0.1,0.3-0.3,0.4-0.4
				C96.2,122.5,97,123.2,97.8,124z"/>
			<path class="st5" d="M104.1,125.7c0.2,0,0.4,0.1,0.6,0.1c-0.1,0.4-0.2,1-0.7,0.7C103.6,126.3,103.8,125.9,104.1,125.7z"/>
			<path class="st6" d="M79.8,141.8c0.1-0.4,0-1,0.7-0.9c0.5,0.1,0.3,0.5,0,0.8C80.2,141.7,80,141.8,79.8,141.8z"/>
			<path class="st5" d="M101.7,126.3c0.1,0.1,0.3,0.2,0.4,0.2c-0.1,0.1-0.3,0.2-0.4,0.2c-0.1,0-0.3-0.1-0.4-0.2
				C101.4,126.4,101.5,126.4,101.7,126.3z"/>
			<path class="st7" d="M114.7,138.7c1.5,0.3,2.4,0.7,2.7,2.4C116,140.7,115.1,140.3,114.7,138.7z"/>
			<path class="st6" d="M84.1,139c-0.3,0.2-0.5,0.4-0.7,0.4c-0.4,0-0.7-0.2-0.6-0.6c0-0.2,0.4-0.3,0.7-0.3
				C83.6,138.6,83.8,138.8,84.1,139z"/>
			<path class="st6" d="M81.8,140.1c-0.1,0.1-0.1,0.1-0.2,0.2c0-0.1-0.1-0.2-0.1-0.2c0-0.1,0.1-0.1,0.1-0.2
				C81.7,140,81.8,140,81.8,140.1z"/>
		</g>
	</g>
	<text transform="matrix(1 0 0 1 55.7239 164.9887)" class="st8 st9 st10">R</text>
	<text transform="matrix(0.7 0 0 0.7 67.3919 164.9887)" class="st8 st9 st11">ide</text>
	<text transform="matrix(1 0 0 1 88.8968 164.9887)" class="st8 st9 st10"> A</text>
	<text transform="matrix(0.7 0 0 0.7 108.6712 164.9887)" class="st8 st9 st11">long</text>
</g>
</svg>
